# Tiled2Unity generated file. Do not modify by hand.
# Wavefront file for 'Map2_mesh_0002.obj'

# Vertices (Count = 48)
v -61.44 -31.36 0
v -62.08 -31.36 0
v -62.08 -30.72 0
v -61.44 -30.72 0
v -62.08 -31.36 0
v -62.72 -31.36 0
v -62.72 -30.72 0
v -62.08 -30.72 0
v -62.72 -31.36 0
v -63.36 -31.36 0
v -63.36 -30.72 0
v -62.72 -30.72 0
v -63.36 -31.36 0
v -64 -31.36 0
v -64 -30.72 0
v -63.36 -30.72 0
v -61.44 -32 0
v -62.08 -32 0
v -62.08 -31.36 0
v -61.44 -31.36 0
v -62.08 -32 0
v -62.72 -32 0
v -62.72 -31.36 0
v -62.08 -31.36 0
v -62.72 -32 0
v -63.36 -32 0
v -63.36 -31.36 0
v -62.72 -31.36 0
v -63.36 -32 0
v -64 -32 0
v -64 -31.36 0
v -63.36 -31.36 0
v -61.44 -32.64 0
v -62.08 -32.64 0
v -62.08 -32 0
v -61.44 -32 0
v -62.08 -32.64 0
v -62.72 -32.64 0
v -62.72 -32 0
v -62.08 -32 0
v -62.72 -32.64 0
v -63.36 -32.64 0
v -63.36 -32 0
v -62.72 -32 0
v -63.36 -32.64 0
v -64 -32.64 0
v -64 -32 0
v -63.36 -32 0

# Texture cooridinates (Count = 8)
vt 0.53125 0.875
vt 0.5625 0.875
vt 0.5625 0.9375
vt 0.53125 0.9375
vt 0.71875 0
vt 0.75 0
vt 0.75 0.0625
vt 0.71875 0.0625

# Normal
vn 0 0 -1

# Mesh description
g Map2_mesh_0002

# Faces
f 1/1/1 2/2/1 3/3/1 4/4/1
f 5/1/1 6/2/1 7/3/1 8/4/1
f 9/1/1 10/2/1 11/3/1 12/4/1
f 13/1/1 14/2/1 15/3/1 16/4/1
f 17/5/1 18/6/1 19/7/1 20/8/1
f 21/5/1 22/6/1 23/7/1 24/8/1
f 25/5/1 26/6/1 27/7/1 28/8/1
f 29/5/1 30/6/1 31/7/1 32/8/1
f 33/5/1 34/6/1 35/7/1 36/8/1
f 37/5/1 38/6/1 39/7/1 40/8/1
f 41/5/1 42/6/1 43/7/1 44/8/1
f 45/5/1 46/6/1 47/7/1 48/8/1

